<?xml version="1.0" standalone="no"?>
<svg xmlns="http://www.w3.org/2000/svg" viewBox="0 0 210.433 29" width="210.433" height="29">
    <g fill="#431818" color="#431818" transform="translate(0, 0) scale(0.0102306)">
        <svg width="2834.65" height="2834.65" x="0.0" y="0.0" viewBox="0 0 2834.65 2834.65">
            <g>
                <g>
                    <g>
                        <path d="M1135.489,1869.41c-54.202,0-109.341-12.591-163.887-37.424c-48.258-21.971-95.257-53.06-139.691-92.402     c-39.071-34.595-75.482-75.266-105.296-117.614c-27.7-39.345-48.691-78.456-60.703-113.104     c-47.003-135.586-70.103-159.772-220.395-317.137l-0.269-0.282l0.292-0.258c95.476-84.322,193.351-127.077,290.906-127.077     c52.293,0,104.816,12.342,156.11,36.682c41.026,19.468,81.362,46.612,119.888,80.679     c65.588,57.997,103.679,116.758,104.056,117.345l0.092,0.143l-0.047,0.163c-78.273,274.695-57.663,335.99-12.503,470.29     c9.626,28.628,20.537,61.075,31.808,99.517l0.141,0.48H1135.489z"></path>
                        <path fill="currentColor"
                              d="M736.447,1064.487c229.014,0,379.738,234.533,379.738,234.533     c-95.003,333.405-44.813,351.33,19.304,570.016c-229.853,0-422.617-225.855-469.222-360.293     c-46.605-134.438-68.115-157.74-220.478-317.273C551.334,1098.255,649.516,1064.487,736.447,1064.487 M736.447,1063.737     c-46.099,0-92.742,9.62-138.635,28.593c-51.025,21.094-102.34,54.261-152.519,98.578l-0.585,0.516l0.539,0.564     c150.243,157.314,173.335,181.492,220.311,317c12.023,34.681,33.03,73.824,60.75,113.198     c29.831,42.372,66.262,83.065,105.355,117.679c44.462,39.368,91.492,70.477,139.784,92.463     c54.595,24.855,109.787,37.458,164.042,37.458h1.001l-0.282-0.961c-11.273-38.449-22.185-70.901-31.812-99.532     c-45.133-134.223-65.732-195.484,12.509-470.067l0.093-0.326l-0.183-0.285c-0.377-0.587-38.496-59.392-104.123-117.423     c-38.552-34.09-78.917-61.253-119.975-80.736C841.373,1076.091,788.796,1063.737,736.447,1063.737L736.447,1063.737z"></path>
                    </g>
                    <g>
                        <path d="M824.227,2085.855c-72.56,0-137.921-13.329-194.266-39.618c-62.897-29.345-111.703-73.824-145.063-132.204     c-77.742-136.047-161.764-207.711-218.561-243.873c-61.512-39.164-105.18-46.26-105.613-46.327l-0.683-0.105l0.461-0.515     c0.314-0.352,32.058-35.546,84.109-70.279c30.572-20.401,62.068-36.656,93.612-48.314     c39.438-14.576,79.063-21.967,117.774-21.967c47.341,0,94.018,11.077,138.734,32.923l0.096,0.047l0.057,0.09     c107.469,170.564,236.878,292.474,384.633,362.341c115.492,54.611,205.486,58.855,230.317,58.855     c4.341,0,6.686-0.131,6.709-0.132l0.917-0.053l-0.619,0.68c-38.223,41.951-97.749,79.757-167.614,106.453     C977.322,2071.332,899.518,2085.855,824.227,2085.855z"></path>
                        <path fill="currentColor"
                              d="M455.997,1483.028c43.734,0.005,90.414,9.358,138.57,32.885     c255.046,404.783,565.971,421.371,615.268,421.371c4.405,0,6.73-0.133,6.73-0.133c-78.211,85.842-237.597,148.33-392.338,148.33     c-136.068,0-268.552-48.343-339.003-171.632c-150.57-263.498-324.443-290.385-324.443-290.385S286.477,1483.01,455.997,1483.028      M455.997,1482.278h-0.032c-38.752,0-78.417,7.398-117.892,21.99c-31.568,11.668-63.087,27.937-93.68,48.354     c-52.084,34.759-83.855,69.989-84.17,70.341l-0.921,1.03l1.366,0.212c0.434,0.067,44.095,7.176,105.559,46.329     c56.737,36.142,140.673,107.757,218.347,243.687c33.399,58.448,82.261,102.979,145.229,132.357     c28.649,13.366,60.212,23.513,93.814,30.159c31.854,6.3,65.704,9.494,100.611,9.494c37.927,0,76.863-3.741,115.725-11.118     c37.62-7.142,74.431-17.54,109.41-30.905c34.681-13.252,66.666-29.076,95.066-47.031c28.896-18.27,53.353-38.295,72.692-59.52     l1.238-1.358l-1.835,0.105c-0.023,0.001-2.36,0.132-6.688,0.132c-24.811,0-114.735-4.242-230.157-58.82     c-147.689-69.836-277.045-191.698-384.476-362.201l-0.114-0.18l-0.192-0.094C550.138,1493.372,503.405,1482.283,455.997,1482.278     L455.997,1482.278z"></path>
                    </g>
                    <g>
                        <path d="M1698.804,1258.046c-29.531-32.108-56.412-67.534-82.408-101.793c-61.076-80.489-118.759-156.515-199.07-174.122     c-80.312,17.607-137.995,93.633-199.07,174.122c-25.996,34.259-52.877,69.685-82.409,101.793l-0.326,0.355l-0.264-0.404     c-58.677-89.844-99.559-114.101-208.819-178.929c-21.146-12.547-45.114-26.768-72.152-43.226l-0.17-0.104l-0.009-0.199     c-3.966-83.283,6.523-154.126,31.176-210.563c29.198-66.842,79.094-115.531,148.303-144.716     c70.312-29.649,170.83-110.898,242.772-173.837c77.963-68.205,140.085-130.19,140.704-130.808l0.265-0.265l0.265,0.265     c0.619,0.618,62.745,62.606,140.708,130.811c71.941,62.938,172.458,144.186,242.767,173.834     c69.209,29.185,119.105,77.874,148.304,144.716c24.653,56.436,35.143,127.279,31.177,210.563l-0.01,0.199l-0.17,0.104     c-27.04,16.459-51.008,30.68-72.154,43.227c-109.26,64.828-150.142,89.084-208.817,178.929l-0.265,0.404L1698.804,1258.046z"></path>
                        <path fill="currentColor"
                              d="M1417.325,375.882c0,0,247.397,247.292,383.595,304.725c148.778,62.738,186.42,204.345,179.25,354.915     c-164.91,100.38-210.85,114.72-281.09,222.27c-98.92-107.55-167.035-250.95-281.755-276.045     c-114.72,25.095-182.835,168.495-281.755,276.045c-70.24-107.55-116.18-121.89-281.09-222.27     c-7.17-150.57,30.473-292.178,179.25-354.915C1169.932,623.173,1417.325,375.882,1417.325,375.882 M1417.325,374.821l-0.53,0.53     c-0.618,0.618-62.738,62.6-140.692,130.797c-71.92,62.918-172.4,144.139-242.664,173.768     c-35.897,15.137-66.857,35.631-92.022,60.911c-23.396,23.504-42.399,51.766-56.479,84     c-12.947,29.64-22.079,63.432-27.139,100.439c-4.587,33.539-5.955,70.646-4.067,110.292l0.019,0.398l0.34,0.207     c27.04,16.459,51.008,30.68,72.155,43.227c109.206,64.796,150.068,89.041,208.697,178.813l0.527,0.807l0.653-0.71     c29.544-32.121,56.431-67.555,82.432-101.821c61.01-80.403,118.64-156.35,198.771-173.964     c80.131,17.614,137.761,93.561,198.771,173.964c26.002,34.267,52.889,69.7,82.433,101.822l0.653,0.71l0.527-0.807     c58.629-89.772,99.491-114.017,208.697-178.813c21.147-12.547,45.115-26.768,72.155-43.227l0.34-0.207l0.019-0.398     c1.888-39.646,0.519-76.754-4.067-110.292c-5.061-37.006-14.192-70.799-27.139-100.439c-14.081-32.235-33.083-60.496-56.48-84     c-25.165-25.28-56.125-45.774-92.022-60.911c-70.264-29.63-170.747-110.853-242.67-173.774     c-77.954-68.197-140.069-130.173-140.687-130.791L1417.325,374.821L1417.325,374.821z"></path>
                    </g>
                    <g>
                        <path d="M1698.66,1869.41l0.141-0.48c11.271-38.442,22.182-70.89,31.808-99.518c45.159-134.299,65.77-195.595-12.504-470.289     l-0.047-0.163l0.092-0.143c0.377-0.587,38.46-59.348,104.044-117.345c38.522-34.066,78.858-61.21,119.886-80.679     c51.296-24.34,103.823-36.682,156.124-36.682c97.556,0,195.431,42.755,290.906,127.077l0.292,0.258l-0.269,0.282     c-150.292,157.364-173.392,181.551-220.396,317.137c-12.012,34.648-33.002,73.76-60.701,113.104     c-29.814,42.349-66.226,83.02-105.296,117.614c-44.434,39.343-91.433,70.432-139.69,92.402     c-54.547,24.833-109.687,37.424-163.889,37.424H1698.66z"></path>
                        <path fill="currentColor"
                              d="M2098.203,1064.487c86.917,0,185.136,33.789,290.658,126.983     c-152.363,159.533-173.873,182.835-220.478,317.273c-46.605,134.438-239.366,360.293-469.222,360.293     c64.117-218.685,114.307-236.61,19.304-570.016C1718.465,1299.02,1869.157,1064.487,2098.203,1064.487 M2098.203,1063.737     c-52.357,0-104.938,12.354-156.284,36.718c-41.06,19.483-81.425,46.647-119.974,80.736     c-65.622,58.031-103.733,116.836-104.111,117.423l-0.183,0.285l0.093,0.326c78.241,274.584,57.642,335.844,12.509,470.068     c-9.627,28.631-20.539,61.082-31.812,99.531l-0.282,0.961h1.001c54.256,0,109.449-12.603,164.044-37.458     c48.292-21.986,95.323-53.095,139.784-92.463c39.092-34.614,75.523-75.307,105.354-117.679     c27.72-39.373,48.727-78.516,60.749-113.198c46.976-135.508,70.068-159.687,220.312-317l0.539-0.564l-0.584-0.516     c-50.169-44.308-101.483-77.472-152.516-98.57C2190.938,1073.359,2144.293,1063.737,2098.203,1063.737L2098.203,1063.737z"></path>
                    </g>
                    <g>
                        <path d="M2010.423,2085.855c-75.284-0.003-153.088-14.528-224.998-42.005c-69.872-26.698-129.399-64.502-167.617-106.447     l-0.619-0.68l0.918,0.053c0.023,0.001,2.362,0.132,6.709,0.132c24.833,0,114.833-4.245,230.335-58.866     c147.749-69.869,277.151-191.774,384.615-362.33l0.057-0.09l0.096-0.047c44.717-21.846,91.394-32.923,138.734-32.923     c38.707,0,78.329,7.391,117.766,21.967c31.544,11.658,63.04,27.913,93.613,48.314c52.055,34.733,83.803,69.928,84.117,70.279     l0.461,0.515l-0.683,0.105c-0.435,0.067-44.139,7.176-105.659,46.355c-56.784,36.163-140.789,107.823-218.517,243.845     c-33.364,58.388-82.169,102.87-145.059,132.212c-56.333,26.283-121.687,39.61-194.244,39.61     C2010.439,2085.855,2010.432,2085.855,2010.423,2085.855z"></path>
                        <path fill="currentColor"
                              d="M2378.653,1483.028c169.5,0,295.216,140.435,295.216,140.435s-173.873,26.888-324.443,290.385     c-70.46,123.305-202.916,171.632-339.003,171.632c-154.724,0-314.135-62.498-392.338-148.33c0,0,2.319,0.133,6.73,0.133     c49.328,0,360.238-16.614,615.268-421.371C2288.254,1492.379,2334.908,1483.028,2378.653,1483.028 M2378.653,1482.278     c-47.399,0-94.131,11.09-138.899,32.961l-0.192,0.094l-0.114,0.18c-107.425,170.494-236.775,292.352-384.458,362.191     c-115.432,54.587-205.362,58.83-230.175,58.83c-4.333,0-6.665-0.13-6.688-0.132l-1.835-0.105l1.238,1.359     c19.336,21.222,43.792,41.246,72.69,59.516c28.4,17.955,60.387,33.779,95.07,47.032c34.981,13.366,71.793,23.765,109.413,30.908     c38.863,7.378,77.797,11.12,115.72,11.12c34.913,0,68.765-3.194,100.618-9.492c33.602-6.644,65.164-16.79,93.811-30.155     c62.962-29.375,111.823-73.908,145.225-132.363c77.704-135.982,161.676-207.605,218.437-243.744     c61.446-39.122,105.036-46.206,105.469-46.272l1.366-0.211l-0.922-1.03c-0.315-0.352-32.095-35.582-84.188-70.341     c-30.598-20.417-62.121-36.686-93.691-48.354C2457.07,1489.676,2417.404,1482.278,2378.653,1482.278L2378.653,1482.278z"></path>
                    </g>
                </g>
                <g>
                    <g>
                        <path d="M1412.911,2277.986c-1.112-1.147-111.43-115.679-130.946-192.413c-4.524-17.789-1.653-34.806,8.535-50.577     c8.133-12.592,20.921-24.416,38.01-35.146c29.063-18.247,60.951-27.124,61.27-27.211l0.048-0.014h46.707l0.049,0.014     c0.318,0.087,32.206,8.964,61.269,27.211c17.089,10.729,29.878,22.554,38.011,35.146c10.188,15.771,13.06,32.788,8.535,50.577     c-19.517,76.734-129.835,191.266-130.947,192.413l-0.27,0.278L1412.911,2277.986z"></path>
                        <path fill="currentColor"
                              d="M1436.483,1973c0,0,127.268,34.954,107.55,112.479s-130.853,192.246-130.853,192.246     s-111.135-114.72-130.853-192.246c-19.717-77.526,107.55-112.479,107.55-112.479h23.302H1436.483 M1436.584,1972.25h-0.101     h-23.302h-23.302h-0.101l-0.098,0.027c-0.319,0.088-32.26,8.979-61.369,27.256c-17.136,10.759-29.963,22.622-38.126,35.259     c-10.246,15.863-13.134,32.979-8.583,50.873c10.218,40.175,45.315,90.408,72.958,125.475     c29.926,37.962,57.804,66.821,58.083,67.108l0.539,0.556l0.539-0.556c0.278-0.287,28.156-29.146,58.083-67.108     c27.643-35.066,62.74-85.3,72.958-125.475c4.551-17.894,1.663-35.01-8.583-50.873c-8.163-12.637-20.99-24.5-38.126-35.259     c-29.109-18.277-61.05-27.168-61.369-27.256L1436.584,1972.25L1436.584,1972.25z"></path>
                    </g>
                    <g>
                        <g>
                            <path d="M521.936,2385.22c8.053-53.15,21.406-95.385,40.821-129.115c17.45-30.314,39.544-53.191,67.544-69.938      c52.276-31.266,117.107-36.244,185.745-41.515c46.753-3.591,95.097-7.304,141.742-19.65      c94.379-24.982,158.02-67.482,194.788-98.735c39.826-33.852,57.558-62.144,57.732-62.425l0.08-0.129l0.146-0.037      c9.385-2.394,18.883-3.606,28.232-3.606c37.274,0,62.064,19.239,62.683,24.262c0.099,0.805-0.304,1.381-1.106,1.582      c-1.114,0.278-5.696,5.903-12.037,13.688c-32.27,39.622-130.47,160.195-281.903,212.157l-0.072,0.024l-0.076-0.005      c-26.922-1.846-49.895-2.743-70.231-2.743c-97.078,0-116.129,20.401-144.968,51.284      c-32.752,35.073-77.608,83.106-268.669,125.324l-0.534,0.118L521.936,2385.22z"></path>
                            <path fill="currentColor"
                                  d="M1238.766,1960.443c41.392,0,67.406,23.625,61.486,25.105c-7.17,1.792-111.135,163.118-293.97,225.855      c-27.187-1.864-50.331-2.744-70.257-2.744c-209.981,0-58.075,98.034-413.718,176.617      c44.813-295.763,252.743-211.515,435.578-259.913c182.835-48.398,252.743-161.325,252.743-161.325      C1220.591,1961.497,1230.02,1960.443,1238.766,1960.443 M1238.766,1959.693c-9.38,0-18.91,1.217-28.324,3.618l-0.293,0.075      l-0.159,0.257c-0.174,0.282-17.91,28.565-57.712,62.384c-36.733,31.212-100.309,73.655-194.585,98.611      c-46.612,12.338-94.939,16.05-141.675,19.639c-68.683,5.274-133.557,10.257-185.908,41.567      c-28.057,16.781-50.194,39.702-67.677,70.073c-19.439,33.771-32.807,76.048-40.867,129.246l-0.164,1.081l1.067-0.236      c191.175-42.242,236.077-90.325,268.862-125.434c28.772-30.811,47.78-51.165,144.694-51.165c20.328,0,43.293,0.897,70.206,2.743      l0.151,0.01l0.143-0.049c64.677-22.193,127.072-59.335,185.451-110.394c47.427-41.479,80.652-82.275,96.62-101.88      c6.022-7.394,10.778-13.234,11.841-13.564c0.988-0.247,1.506-0.991,1.383-1.991c-0.358-2.906-6.765-8.958-17.935-14.451      C1274.479,1965.207,1259.015,1959.693,1238.766,1959.693L1238.766,1959.693z"></path>
                        </g>
                        <g>
                            <path d="M986.191,2449.775c3.685-45.441,19.09-91.264,45.789-136.195c21.352-35.934,49.934-71.382,84.953-105.359      c59.617-57.844,118.02-91.809,118.603-92.146l0.321-0.185l0.189,0.318c28.323,47.796,87.171,101.55,87.762,102.087l0.447,0.406      l-0.563,0.221c-0.47,0.184-47.788,18.803-112.666,56.446c-59.874,34.74-147.37,93.248-224.188,174.693l-0.733,0.777      L986.191,2449.775z"></path>
                            <path fill="currentColor"
                                  d="M1235.723,2116.401c28.68,48.397,87.833,102.173,87.833,102.173s-188.213,73.493-336.99,231.233      C1002.697,2250.838,1235.723,2116.401,1235.723,2116.401 M1235.99,2115.381l-0.642,0.37      c-0.583,0.337-59.027,34.325-118.677,92.201c-35.042,34-63.645,69.474-85.014,105.437      c-26.728,44.981-42.151,90.858-45.84,136.357l-0.173,2.129l1.466-1.554c76.792-81.418,164.262-139.906,224.118-174.635      c64.85-37.626,112.13-56.23,112.6-56.414l1.127-0.44l-0.895-0.813c-0.591-0.537-59.399-54.256-87.692-102L1235.99,2115.381      L1235.99,2115.381z"></path>
                        </g>
                    </g>
                    <g>
                        <g>
                            <path d="M1839.523,2459.025c-76.823-81.45-164.325-139.96-224.203-174.701c-64.874-37.641-112.181-56.255-112.651-56.438      l-0.563-0.221l0.448-0.406c0.591-0.537,59.439-54.292,87.762-102.087l0.188-0.318l0.321,0.185      c0.583,0.337,58.986,34.302,118.603,92.146c35.02,33.978,63.602,69.426,84.953,105.359      c26.699,44.932,42.104,90.754,45.789,136.195l0.086,1.064L1839.523,2459.025z"></path>
                            <path fill="currentColor"
                                  d="M1590.638,2125.363c0,0,233.025,134.438,249.158,333.405c-148.778-157.74-336.99-231.233-336.99-231.233      S1561.958,2173.761,1590.638,2125.363 M1590.37,2124.343l-0.378,0.638c-28.293,47.744-87.101,101.463-87.692,102l-0.895,0.813      l1.127,0.44c0.47,0.184,47.772,18.798,112.628,56.43c59.848,34.726,147.306,93.21,224.09,174.619l1.466,1.554l-0.173-2.129      c-3.689-45.499-19.112-91.376-45.84-136.357c-21.369-35.962-49.972-71.436-85.014-105.437      c-59.65-57.876-118.093-91.865-118.677-92.201L1590.37,2124.343L1590.37,2124.343z"></path>
                        </g>
                        <g>
                            <path d="M2312.262,2407.152c-191.062-42.217-235.917-90.251-268.669-125.324c-28.839-30.882-47.891-51.284-144.968-51.284      c-20.336,0-43.309,0.897-70.231,2.743l-0.075,0.005l-0.072-0.024c-151.433-51.962-249.633-172.535-281.903-212.156      c-6.341-7.786-10.922-13.411-12.036-13.689c-0.802-0.201-1.205-0.777-1.105-1.582c0.618-5.022,25.409-24.262,62.683-24.262      c9.349,0,18.848,1.213,28.231,3.606l0.146,0.037l0.079,0.129c0.175,0.282,17.925,28.594,57.761,62.449      c36.765,31.244,100.398,73.732,194.76,98.711c46.646,12.347,94.989,16.06,141.742,19.65      c68.638,5.271,133.469,10.25,185.745,41.515c28,16.747,50.094,39.624,67.543,69.939c19.416,33.73,32.769,75.964,40.822,129.114      l0.081,0.541L2312.262,2407.152z"></path>
                            <path fill="currentColor"
                                  d="M1595.883,1981.953c8.746,0,18.176,1.054,28.139,3.595c0,0,69.908,112.927,252.743,161.325      c182.835,48.397,390.765-35.85,435.578,259.913c-355.643-78.583-203.737-176.604-413.718-176.617      c-19.926-0.001-43.07,0.88-70.257,2.744c-182.835-62.738-286.8-224.063-293.97-225.855      C1528.478,2005.578,1554.492,1981.954,1595.883,1981.953 M1595.886,1981.203v0.75V1981.203h-0.003      c-20.249,0-35.713,5.515-45.119,10.141c-11.17,5.493-17.578,11.545-17.935,14.45c-0.123,0.999,0.395,1.744,1.387,1.992      c1.059,0.329,5.816,6.169,11.838,13.563c15.967,19.605,49.193,60.4,96.62,101.88c58.38,51.059,120.775,88.201,185.451,110.395      l0.143,0.049l0.151-0.01c26.913-1.845,49.865-2.742,70.165-2.742c96.954,0.006,115.962,20.36,144.734,51.169      c32.785,35.107,77.686,83.187,268.863,125.43l1.067,0.236l-0.164-1.08c-8.06-53.198-21.428-95.474-40.867-129.246      c-17.482-30.372-39.619-53.293-67.676-70.073c-52.352-31.311-117.226-36.293-185.908-41.567      c-46.736-3.589-95.063-7.301-141.675-19.639c-94.311-24.965-157.902-67.43-194.641-98.658      c-39.781-33.814-57.482-62.056-57.656-62.337l-0.159-0.257l-0.293-0.075C1614.793,1982.42,1605.264,1981.203,1595.886,1981.203      L1595.886,1981.203z"></path>
                        </g>
                    </g>
                </g>
                <g>
                    <path d="M1413.042,1950.047c-0.72-0.285-72.84-29.258-144.412-94.104c-42.039-38.089-75.671-80.922-99.961-127.307    c-30.365-57.985-46.133-121.714-46.865-189.417c-0.732-67.695,14.121-136.979,44.147-205.925    c24.017-55.147,57.74-110.204,100.232-163.64c70.772-89,142.834-144.003,146.622-146.866v-3.87l0.599,0.448    c0.736,0.549,74.428,56.003,146.772,146.979c42.493,53.436,76.216,108.493,100.232,163.64    c30.026,68.946,44.88,138.229,44.147,205.925c-0.732,67.702-16.5,131.431-46.864,189.416    c-24.291,46.385-57.923,89.218-99.962,127.307c-69.515,62.983-139.547,92.125-144.175,94.01v3.607L1413.042,1950.047z"></path>
                    <path fill="currentColor"
                          d="M1413.18,1019.666c0,0,294.208,219.686,291.001,516.24c-3.207,296.552-291.001,410.483-291.001,410.483    v3.308c0,0-287.795-113.929-291.001-410.483s291.001-516.24,291.001-516.24V1019.666 M1412.43,1018.17v1.496v2.935    c-5.231,3.97-76.52,58.766-146.54,146.819c-42.513,53.462-76.253,108.546-100.283,163.724    c-30.047,68.995-44.911,138.33-44.178,206.079c0.733,67.762,16.515,131.548,46.907,189.587    c24.311,46.424,57.97,89.291,100.042,127.41c37.424,33.908,74.718,57.704,99.414,71.695c26.767,15.165,44.931,22.408,45.112,22.48    l1.026,0.406v-1.104v-2.803c3.026-1.239,20.266-8.48,44.638-22.288c24.696-13.992,61.99-37.788,99.414-71.696    c42.072-38.119,75.731-80.986,100.042-127.41c30.393-58.038,46.175-121.824,46.907-189.586    c0.733-67.749-14.131-137.084-44.179-206.079c-24.03-55.178-57.77-110.262-100.283-163.724    c-72.374-91.014-146.105-146.497-146.842-147.047L1412.43,1018.17L1412.43,1018.17z"></path>
                </g>
            </g>
        </svg>
    </g>
    <line x1="41" y1="1" x2="41" y2="28" stroke="#60001a" stroke-linecap="round"></line>
    <path fill="#60001a" fill-rule="nonzero"
          d="M1.08 17.76Q0.62 17.76 0.31 17.45Q0 17.14 0 16.68L0 16.68L0 2.35Q0 1.70 0.46 1.24Q0.91 0.77 1.56 0.77L1.56 0.77L1.87 0.77Q2.64 0.77 3.19 1.49L3.19 1.49L12.43 14.83L12.43 1.87Q12.43 1.42 12.74 1.09Q13.06 0.77 13.51 0.77L13.51 0.77Q13.97 0.77 14.29 1.09Q14.62 1.42 14.62 1.87L14.62 1.87L14.62 16.20Q14.62 16.85 14.15 17.30Q13.68 17.76 13.03 17.76L13.03 17.76L12.74 17.76Q12.36 17.76 12.02 17.58Q11.69 17.40 11.47 17.11L11.47 17.11L2.18 3.70L2.18 16.68Q2.18 17.14 1.86 17.45Q1.54 17.76 1.08 17.76L1.08 17.76ZM23.98 17.88Q21.05 17.88 19.40 16.21Q17.76 14.54 17.76 11.52L17.76 11.52Q17.76 9.82 18.38 8.38Q19.01 6.94 20.30 6.05Q21.60 5.16 23.50 5.16L23.50 5.16Q25.27 5.16 26.57 5.99Q27.86 6.82 28.54 8.20Q29.21 9.58 29.21 11.21L29.21 11.21Q29.21 11.66 28.91 11.98Q28.61 12.29 28.10 12.29L28.10 12.29L19.97 12.29Q20.16 13.97 21.22 14.90Q22.27 15.84 24.17 15.84L24.17 15.84Q25.18 15.84 25.93 15.65Q26.69 15.46 27.41 15.10L27.41 15.10Q27.60 15 27.84 15L27.84 15Q28.22 15 28.51 15.26Q28.80 15.53 28.80 15.94L28.80 15.94Q28.80 16.46 28.18 16.82L28.18 16.82Q27.24 17.35 26.33 17.62Q25.42 17.88 23.98 17.88L23.98 17.88ZM19.97 10.51L27.05 10.51Q26.98 9.34 26.44 8.54Q25.90 7.75 25.10 7.38Q24.31 7.01 23.50 7.01L23.50 7.01Q22.68 7.01 21.89 7.38Q21.10 7.75 20.57 8.54Q20.04 9.34 19.97 10.51L19.97 10.51ZM36.31 17.88Q32.81 17.88 32.81 14.71L32.81 14.71L32.81 7.27L31.10 7.27Q30.91 7.27 30.78 7.14Q30.65 7.01 30.65 6.82L30.65 6.82Q30.65 6.58 30.86 6.41L30.86 6.41L34.13 3.22Q34.34 3 34.54 3L34.54 3Q34.73 3 34.86 3.14Q34.99 3.29 34.99 3.48L34.99 3.48L34.99 5.40L37.70 5.40Q38.11 5.40 38.38 5.66Q38.64 5.93 38.64 6.34L38.64 6.34Q38.64 6.72 38.38 7.00Q38.11 7.27 37.70 7.27L37.70 7.27L34.99 7.27L34.99 14.52Q34.99 15.46 35.44 15.71Q35.88 15.96 36.55 15.96L36.55 15.96Q37.03 15.96 37.51 15.82L37.51 15.82Q37.61 15.79 37.72 15.77Q37.82 15.74 37.99 15.74L37.99 15.74Q38.33 15.74 38.59 16.00Q38.86 16.25 38.86 16.61L38.86 16.61Q38.86 17.16 38.30 17.45L38.30 17.45Q37.37 17.88 36.31 17.88L36.31 17.88ZM42.34 17.76Q41.88 17.76 41.57 17.45Q41.26 17.14 41.26 16.68L41.26 16.68L41.26 1.10Q41.26 0.65 41.57 0.32Q41.88 0 42.34 0L42.34 0Q42.79 0 43.12 0.32Q43.44 0.65 43.44 1.10L43.44 1.10L43.44 7.37Q44.35 6.36 45.41 5.76Q46.46 5.16 47.90 5.16L47.90 5.16Q49.22 5.16 50.20 5.78Q51.17 6.41 51.68 7.49Q52.20 8.57 52.20 9.86L52.20 9.86L52.20 16.68Q52.20 17.14 51.88 17.45Q51.55 17.76 51.10 17.76L51.10 17.76Q50.64 17.76 50.33 17.45Q50.02 17.14 50.02 16.68L50.02 16.68L50.02 10.10Q50.02 7.18 47.38 7.18L47.38 7.18Q46.18 7.18 45.23 7.80Q44.28 8.42 43.44 9.48L43.44 9.48L43.44 16.68Q43.44 17.14 43.12 17.45Q42.79 17.76 42.34 17.76L42.34 17.76ZM61.34 17.88Q58.42 17.88 56.77 16.21Q55.13 14.54 55.13 11.52L55.13 11.52Q55.13 9.82 55.75 8.38Q56.38 6.94 57.67 6.05Q58.97 5.16 60.86 5.16L60.86 5.16Q62.64 5.16 63.94 5.99Q65.23 6.82 65.90 8.20Q66.58 9.58 66.58 11.21L66.58 11.21Q66.58 11.66 66.28 11.98Q65.98 12.29 65.47 12.29L65.47 12.29L57.34 12.29Q57.53 13.97 58.58 14.90Q59.64 15.84 61.54 15.84L61.54 15.84Q62.54 15.84 63.30 15.65Q64.06 15.46 64.78 15.10L64.78 15.10Q64.97 15 65.21 15L65.21 15Q65.59 15 65.88 15.26Q66.17 15.53 66.17 15.94L66.17 15.94Q66.17 16.46 65.54 16.82L65.54 16.82Q64.61 17.35 63.70 17.62Q62.78 17.88 61.34 17.88L61.34 17.88ZM57.34 10.51L64.42 10.51Q64.34 9.34 63.80 8.54Q63.26 7.75 62.47 7.38Q61.68 7.01 60.86 7.01L60.86 7.01Q60.05 7.01 59.26 7.38Q58.46 7.75 57.94 8.54Q57.41 9.34 57.34 10.51L57.34 10.51ZM74.86 17.88Q73.01 17.88 71.62 17.09Q70.22 16.30 69.47 14.84Q68.71 13.39 68.71 11.52L68.71 11.52Q68.71 9.65 69.47 8.20Q70.22 6.74 71.62 5.95Q73.01 5.16 74.86 5.16L74.86 5.16Q76.68 5.16 78.07 5.95Q79.46 6.74 80.23 8.20Q81 9.65 81 11.52L81 11.52Q81 13.39 80.23 14.84Q79.46 16.30 78.07 17.09Q76.68 17.88 74.86 17.88L74.86 17.88ZM74.86 15.89Q75.84 15.89 76.74 15.43Q77.64 14.98 78.23 13.99Q78.82 13.01 78.82 11.50L78.82 11.50Q78.82 10.01 78.23 9.02Q77.64 8.04 76.74 7.60Q75.84 7.15 74.86 7.15L74.86 7.15Q73.85 7.15 72.95 7.60Q72.05 8.04 71.47 9.02Q70.90 10.01 70.90 11.50L70.90 11.50Q70.90 13.01 71.47 13.99Q72.05 14.98 72.95 15.43Q73.85 15.89 74.86 15.89L74.86 15.89ZM85.13 23.28Q84.67 23.28 84.36 22.96Q84.05 22.63 84.05 22.18L84.05 22.18L84.05 6.36Q84.05 5.90 84.36 5.59Q84.67 5.28 85.13 5.28L85.13 5.28Q85.58 5.28 85.91 5.59Q86.23 5.90 86.23 6.36L86.23 6.36L86.23 6.98Q87.98 5.16 90.34 5.16L90.34 5.16Q91.82 5.16 93.16 5.92Q94.49 6.67 95.32 8.12Q96.14 9.58 96.14 11.52L96.14 11.52Q96.14 13.46 95.32 14.92Q94.49 16.37 93.16 17.12Q91.82 17.88 90.34 17.88L90.34 17.88Q87.98 17.88 86.23 16.06L86.23 16.06L86.23 22.18Q86.23 22.66 85.92 22.97Q85.61 23.28 85.13 23.28L85.13 23.28ZM90.02 15.84Q91.80 15.84 92.88 14.71Q93.96 13.58 93.96 11.52L93.96 11.52Q93.96 9.46 92.88 8.33Q91.80 7.20 90.02 7.20L90.02 7.20Q88.92 7.20 87.95 7.69Q86.98 8.18 86.23 9L86.23 9L86.23 14.04Q86.98 14.86 87.95 15.35Q88.92 15.84 90.02 15.84L90.02 15.84ZM104.59 17.88Q102.74 17.88 101.35 17.09Q99.96 16.30 99.20 14.84Q98.45 13.39 98.45 11.52L98.45 11.52Q98.45 9.65 99.20 8.20Q99.96 6.74 101.35 5.95Q102.74 5.16 104.59 5.16L104.59 5.16Q106.42 5.16 107.81 5.95Q109.20 6.74 109.97 8.20Q110.74 9.65 110.74 11.52L110.74 11.52Q110.74 13.39 109.97 14.84Q109.20 16.30 107.81 17.09Q106.42 17.88 104.59 17.88L104.59 17.88ZM104.59 15.89Q105.58 15.89 106.48 15.43Q107.38 14.98 107.96 13.99Q108.55 13.01 108.55 11.50L108.55 11.50Q108.55 10.01 107.96 9.02Q107.38 8.04 106.48 7.60Q105.58 7.15 104.59 7.15L104.59 7.15Q103.58 7.15 102.68 7.60Q101.78 8.04 101.21 9.02Q100.63 10.01 100.63 11.50L100.63 11.50Q100.63 13.01 101.21 13.99Q101.78 14.98 102.68 15.43Q103.58 15.89 104.59 15.89L104.59 15.89ZM114.82 2.90Q114.31 2.90 113.95 2.54Q113.59 2.18 113.59 1.68L113.59 1.68L113.59 1.58Q113.59 1.08 113.95 0.72Q114.31 0.36 114.82 0.36L114.82 0.36L114.96 0.36Q115.46 0.36 115.82 0.72Q116.18 1.08 116.18 1.58L116.18 1.58L116.18 1.68Q116.18 2.18 115.82 2.54Q115.46 2.90 114.96 2.90L114.96 2.90L114.82 2.90ZM114.86 17.76Q114.41 17.76 114.10 17.45Q113.78 17.14 113.78 16.68L113.78 16.68L113.78 6.38Q113.78 5.93 114.10 5.60Q114.41 5.28 114.86 5.28L114.86 5.28Q115.34 5.28 115.66 5.59Q115.97 5.90 115.97 6.38L115.97 6.38L115.97 16.68Q115.97 17.14 115.64 17.45Q115.32 17.76 114.86 17.76L114.86 17.76ZM125.23 17.88Q122.30 17.88 120.66 16.21Q119.02 14.54 119.02 11.52L119.02 11.52Q119.02 9.82 119.64 8.38Q120.26 6.94 121.56 6.05Q122.86 5.16 124.75 5.16L124.75 5.16Q126.53 5.16 127.82 5.99Q129.12 6.82 129.79 8.20Q130.46 9.58 130.46 11.21L130.46 11.21Q130.46 11.66 130.16 11.98Q129.86 12.29 129.36 12.29L129.36 12.29L121.22 12.29Q121.42 13.97 122.47 14.90Q123.53 15.84 125.42 15.84L125.42 15.84Q126.43 15.84 127.19 15.65Q127.94 15.46 128.66 15.10L128.66 15.10Q128.86 15 129.10 15L129.10 15Q129.48 15 129.77 15.26Q130.06 15.53 130.06 15.94L130.06 15.94Q130.06 16.46 129.43 16.82L129.43 16.82Q128.50 17.35 127.58 17.62Q126.67 17.88 125.23 17.88L125.23 17.88ZM121.22 10.51L128.30 10.51Q128.23 9.34 127.69 8.54Q127.15 7.75 126.36 7.38Q125.57 7.01 124.75 7.01L124.75 7.01Q123.94 7.01 123.14 7.38Q122.35 7.75 121.82 8.54Q121.30 9.34 121.22 10.51L121.22 10.51ZM137.30 17.88Q134.90 17.88 132.94 16.80L132.94 16.80Q132.53 16.51 132.53 16.01L132.53 16.01Q132.53 15.62 132.79 15.34Q133.06 15.05 133.46 15.05L133.46 15.05Q133.68 15.05 133.90 15.14L133.90 15.14Q134.66 15.48 135.43 15.67Q136.20 15.86 137.16 15.86L137.16 15.86Q139.82 15.86 139.82 14.16L139.82 14.16Q139.82 13.61 139.21 13.32Q138.60 13.03 137.21 12.67L137.21 12.67Q135.79 12.34 134.87 11.98Q133.94 11.62 133.28 10.88Q132.62 10.15 132.62 8.95L132.62 8.95Q132.62 7.27 133.84 6.22Q135.05 5.16 137.30 5.16L137.30 5.16Q139.15 5.16 140.78 5.76L140.78 5.76Q141.12 5.86 141.30 6.12Q141.48 6.38 141.48 6.67L141.48 6.67Q141.48 7.06 141.20 7.34Q140.93 7.63 140.52 7.63L140.52 7.63Q140.40 7.63 140.21 7.58L140.21 7.58Q138.82 7.15 137.47 7.15L137.47 7.15Q136.18 7.15 135.44 7.62Q134.71 8.09 134.71 8.83L134.71 8.83Q134.71 9.55 135.38 9.89Q136.06 10.22 137.47 10.54L137.47 10.54Q138.89 10.90 139.78 11.24Q140.66 11.59 141.30 12.34Q141.94 13.08 141.94 14.33L141.94 14.33Q141.94 15.86 140.72 16.87Q139.51 17.88 137.30 17.88L137.30 17.88ZM145.90 2.90Q145.39 2.90 145.03 2.54Q144.67 2.18 144.67 1.68L144.67 1.68L144.67 1.58Q144.67 1.08 145.03 0.72Q145.39 0.36 145.90 0.36L145.90 0.36L146.04 0.36Q146.54 0.36 146.90 0.72Q147.26 1.08 147.26 1.58L147.26 1.58L147.26 1.68Q147.26 2.18 146.90 2.54Q146.54 2.90 146.04 2.90L146.04 2.90L145.90 2.90ZM145.94 17.76Q145.49 17.76 145.18 17.45Q144.86 17.14 144.86 16.68L144.86 16.68L144.86 6.38Q144.86 5.93 145.18 5.60Q145.49 5.28 145.94 5.28L145.94 5.28Q146.42 5.28 146.74 5.59Q147.05 5.90 147.05 6.38L147.05 6.38L147.05 16.68Q147.05 17.14 146.72 17.45Q146.40 17.76 145.94 17.76L145.94 17.76ZM154.80 17.88Q152.40 17.88 150.43 16.80L150.43 16.80Q150.02 16.51 150.02 16.01L150.02 16.01Q150.02 15.62 150.29 15.34Q150.55 15.05 150.96 15.05L150.96 15.05Q151.18 15.05 151.39 15.14L151.39 15.14Q152.16 15.48 152.93 15.67Q153.70 15.86 154.66 15.86L154.66 15.86Q157.32 15.86 157.32 14.16L157.32 14.16Q157.32 13.61 156.71 13.32Q156.10 13.03 154.70 12.67L154.70 12.67Q153.29 12.34 152.36 11.98Q151.44 11.62 150.78 10.88Q150.12 10.15 150.12 8.95L150.12 8.95Q150.12 7.27 151.33 6.22Q152.54 5.16 154.80 5.16L154.80 5.16Q156.65 5.16 158.28 5.76L158.28 5.76Q158.62 5.86 158.80 6.12Q158.98 6.38 158.98 6.67L158.98 6.67Q158.98 7.06 158.70 7.34Q158.42 7.63 158.02 7.63L158.02 7.63Q157.90 7.63 157.70 7.58L157.70 7.58Q156.31 7.15 154.97 7.15L154.97 7.15Q153.67 7.15 152.94 7.62Q152.21 8.09 152.21 8.83L152.21 8.83Q152.21 9.55 152.88 9.89Q153.55 10.22 154.97 10.54L154.97 10.54Q156.38 10.90 157.27 11.24Q158.16 11.59 158.80 12.34Q159.43 13.08 159.43 14.33L159.43 14.33Q159.43 15.86 158.22 16.87Q157.01 17.88 154.80 17.88L154.80 17.88Z"
          transform="translate(51, 5.68)"></path>
</svg>